# xmcd
#
# Track frame offsets:
#	150
#	28484
#	44299
#	64259
#	88108
#	106869
#	118817
#	133352
#	150985
#	170003
#
# Disc length: 2616 seconds
#
# Revision: 0
# Processed by: cddbd v1.5.2PL0 Copyright (c) Steve Scherf et al.
# Submitted via: EZCDAudioConverter 2.1.7.1
#
DISCID=8d0a360a
DTITLE=Death And Vanilla - To Where The Wild Things Are
DYEAR=1900
DGENRE=
TTITLE0=Necessary Distortions
TTITLE1=The Optic Nerve
TTITLE2=Arcana
TTITLE3=California Owls
TTITLE4=Time Travel
TTITLE5=Follow The Light
TTITLE6=Shadow And Shape
TTITLE7=Hidden Reverse
TTITLE8=Moogskogen
TTITLE9=Something Unknown You Need To Know
EXTD=
EXTT0=
EXTT1=
EXTT2=
EXTT3=
EXTT4=
EXTT5=
EXTT6=
EXTT7=
EXTT8=
EXTT9=
PLAYORDER=
